<svg version="1.1" xmlns="http://www.w3.org/2000/svg" xmlns:xlink="http://www.w3.org/1999/xlink" width="63.99999" height="63.99999" viewBox="0,0,63.99999,63.99999"><g transform="translate(-208.00002,-148.00003)"><g data-paper-data="{&quot;isPaintingLayer&quot;:true}" fill-rule="nonzero" stroke="none" stroke-linecap="butt" stroke-linejoin="miter" stroke-miterlimit="10" stroke-dasharray="" stroke-dashoffset="0" style="mix-blend-mode: normal"><path d="M208.00002,212.00002v-63.99999h63.99999v63.99999z" data-paper-data="{&quot;index&quot;:null}" fill="none" stroke-width="1"/><g data-paper-data="{&quot;index&quot;:null}"><path d="M270.00001,173.60001v6.80001l-30,30l-30,-30v-6.9l5.6,-5.6h6.80001l7.6,7.6v-18l7.7,-7.6h4.7l7.6,7.6v18l7.6,-7.6h6.80001zM265.30002,179.20001v-3.80001l-2.7,-2.7h-3.80001l-11.2,11.2h-1.5v-12.8v-2.30001v-7.99999l-4.2,-4.2h-3.70001l-4.2,4.2v7.99999v2.30001v12.70001h-1.5l-11.2,-11.2h-3.80001l-2.7,2.7v3.90001l25.2,25.3l25.2,-25.3z" fill="#000000" stroke-width="1"/><path d="M268.00004,174.10002v5.6l-28,28l-28,-28v-5.6l4.2,-4.2h5.6l8.2,8.2v1.8h1.99999v-21.8l6.3,-6.2h3.49999l6.2,6.2v21.8h1.99999v-1.8l8.3,-8.2h5.5zM236.00001,170.20003l4,4l4,-4v-8.6l-3,-3h-1.99999l-3,3zM235.90001,173.60001v10.6l4,4l4,-4v-10.6l-2.2,2.2h-3.49999l-2.2,-2.2zM263.10001,178.40003v-2.19999l-1.5,-1.5h-2.09999l-11.2,11.2h-2.6l-4,4h-3.49999l-4,-4h-2.6l-11.2,-11.2h-2.09999l-1.5,1.5v2.19999l23.2,23.2l23.2,-23.2z" fill="#ff0099" stroke-width="1"/><path d="M235.96595,161.56341l3.02727,-3.01293h2.01357l3.02727,3.01293v8.67322l-4.03405,4.01339l-4.03405,-4.01339z" data-paper-data="{&quot;noHover&quot;:false,&quot;origItem&quot;:[&quot;Path&quot;,{&quot;applyMatrix&quot;:true,&quot;segments&quot;:[[249.75807,184.10122],[244.10122,184.10122],[244.10122,189.75807],[250.18234,195.83919],[254.42498,195.83919],[255.83919,194.42498],[255.83919,190.18234]],&quot;closed&quot;:true,&quot;fillColor&quot;:[0,0,0,1]}]}" fill="#ffffff" stroke-width="0.5"/><path d="M235.97041,173.55975l2.20559,2.19643l3.54915,0.0006l2.20501,-2.19667v10.67982l-4.03012,4.01009l-4.03012,-4.01009v-10.67982z" data-paper-data="{&quot;noHover&quot;:false,&quot;origItem&quot;:[&quot;Path&quot;,{&quot;applyMatrix&quot;:true,&quot;segments&quot;:[[247.42462,181.62635],[239.92929,174.13101],[234.27244,174.13101],[234.27244,179.78787],[241.76777,187.2832],[241.76777,184.17193],[244.24264,181.69706],[247.35391,181.69706]],&quot;closed&quot;:true,&quot;fillColor&quot;:[0,0,0,1]}]}" fill="#ffffff" stroke-width="0.5"/><path d="M263.24996,178.40234l-23.2499,23.24769l-23.25,-23.24768l0.00001,-2.20474l1.5003,-1.50358l2.19919,0.01266l11.18538,11.15759l2.593,-0.00571l3.97906,3.99196l3.48622,-0.00003l3.97903,-3.99204l2.59293,0.00571l11.18528,-11.15746l2.19919,-0.01269l1.5003,1.5036l0.00001,2.20475z" data-paper-data="{&quot;noHover&quot;:false,&quot;origItem&quot;:[&quot;Path&quot;,{&quot;applyMatrix&quot;:true,&quot;segments&quot;:[[224.7972,197.46554],[226.35284,199.02117],[228.47416,199.02117],[229.95908,197.53625],[229.95908,181.69706],[231.79756,179.85858],[231.79756,174.20172],[234.27244,171.72685],[239.92929,171.72685],[241.76777,169.88837],[257.60696,169.88837],[259.09188,168.40345],[259.09188,166.28213],[257.53625,164.72649],[224.72649,164.72649],[224.72649,197.53625]],&quot;closed&quot;:true,&quot;fillColor&quot;:[0,0,0,1]}]}" fill="#ffffff" stroke-width="0.5"/></g></g></g></svg>