<svg version="1.1" xmlns="http://www.w3.org/2000/svg" xmlns:xlink="http://www.w3.org/1999/xlink" width="63.99999" height="63.99999" viewBox="0,0,63.99999,63.99999"><g transform="translate(-208.00002,-148.00003)"><g data-paper-data="{&quot;isPaintingLayer&quot;:true}" fill-rule="nonzero" stroke="none" stroke-linecap="butt" stroke-linejoin="miter" stroke-miterlimit="10" stroke-dasharray="" stroke-dashoffset="0" style="mix-blend-mode: normal"><path d="M208.00002,148.00003h63.99999l0,63.99999h-63.99999z" data-paper-data="{&quot;index&quot;:null}" fill="none" stroke-width="1"/><g data-paper-data="{&quot;index&quot;:null}"><path d="M246.40003,210.00002h-6.80001l-30,-30l30,-30l6.9,0l5.6,5.6l0,6.80001l-7.6,7.6h18l7.6,7.7v4.7l-7.6,7.6h-18l7.6,7.6v6.80001zM240.80003,205.30003l3.80001,0l2.7,-2.7l0,-3.80001l-11.2,-11.2v-1.5h12.8h2.30001h7.99999l4.2,-4.2v-3.70001l-4.2,-4.2h-7.99999h-2.30001h-12.70001v-1.5l11.2,-11.2l0,-3.80001l-2.7,-2.7h-3.90001l-25.3,25.2l25.3,25.2z" fill="#000000" stroke-width="1"/><path d="M245.90002,208.00005h-5.6l-28,-28l28,-28l5.6,0l4.2,4.2v5.6l-8.2,8.2h-1.8l0,1.99999h21.8l6.2,6.3v3.49999l-6.2,6.2h-21.8v1.99999h1.8l8.2,8.3v5.5zM249.80001,176.00002l-4,4l4,4l8.6,0l3,-3v-1.99999l-3,-3zM246.40003,175.90002h-10.6l-4,4l4,4h10.6l-2.2,-2.2l0,-3.49999l2.2,-2.2zM241.60001,203.10002h2.19999l1.5,-1.5l0,-2.09999l-11.2,-11.2v-2.6l-4,-4v-3.49999l4,-4l0,-2.6l11.2,-11.2v-2.09999l-1.5,-1.5h-2.19999l-23.2,23.2l23.2,23.2z" fill="#9966ff" stroke-width="1"/><path d="M258.43663,175.96596l3.01293,3.02727v2.01357l-3.01293,3.02727l-8.67322,0l-4.01339,-4.03405l4.01339,-4.03405z" data-paper-data="{&quot;noHover&quot;:false,&quot;origItem&quot;:[&quot;Path&quot;,{&quot;applyMatrix&quot;:true,&quot;segments&quot;:[[249.75807,184.10122],[244.10122,184.10122],[244.10122,189.75807],[250.18234,195.83919],[254.42498,195.83919],[255.83919,194.42498],[255.83919,190.18234]],&quot;closed&quot;:true,&quot;fillColor&quot;:[0,0,0,1]}]}" fill="#ffffff" stroke-width="0.5"/><path d="M246.44029,175.97042l-2.19643,2.20559l-0.0006,3.54915l2.19667,2.20501l-10.67982,0l-4.01009,-4.03012l4.01009,-4.03012l10.67982,0z" data-paper-data="{&quot;noHover&quot;:false,&quot;origItem&quot;:[&quot;Path&quot;,{&quot;applyMatrix&quot;:true,&quot;segments&quot;:[[247.42462,181.62635],[239.92929,174.13101],[234.27244,174.13101],[234.27244,179.78787],[241.76777,187.2832],[241.76777,184.17193],[244.24264,181.69706],[247.35391,181.69706]],&quot;closed&quot;:true,&quot;fillColor&quot;:[0,0,0,1]}]}" fill="#ffffff" stroke-width="0.5"/><path d="M241.5977,203.24997l-23.24769,-23.2499l23.24768,-23.25l2.20474,0.00001l1.50358,1.5003l-0.01266,2.19919l-11.15759,11.18538l0.00571,2.593l-3.99196,3.97906l0.00003,3.48622l3.99204,3.97903l-0.00571,2.59293l11.15746,11.18528l0.01269,2.19919l-1.5036,1.5003l-2.20475,0.00001z" data-paper-data="{&quot;noHover&quot;:false,&quot;origItem&quot;:[&quot;Path&quot;,{&quot;applyMatrix&quot;:true,&quot;segments&quot;:[[224.7972,197.46554],[226.35284,199.02117],[228.47416,199.02117],[229.95908,197.53625],[229.95908,181.69706],[231.79756,179.85858],[231.79756,174.20172],[234.27244,171.72685],[239.92929,171.72685],[241.76777,169.88837],[257.60696,169.88837],[259.09188,168.40345],[259.09188,166.28213],[257.53625,164.72649],[224.72649,164.72649],[224.72649,197.53625]],&quot;closed&quot;:true,&quot;fillColor&quot;:[0,0,0,1]}]}" fill="#ffffff" stroke-width="0.5"/></g></g></g></svg>