<svg version="1.1" xmlns="http://www.w3.org/2000/svg" xmlns:xlink="http://www.w3.org/1999/xlink" width="63.99999" height="63.99999" viewBox="0,0,63.99999,63.99999"><g transform="translate(-208.00002,-148.00002)"><g data-paper-data="{&quot;isPaintingLayer&quot;:true}" fill-rule="nonzero" stroke="none" stroke-linecap="butt" stroke-linejoin="miter" stroke-miterlimit="10" stroke-dasharray="" stroke-dashoffset="0" style="mix-blend-mode: normal"><path d="M272.00001,212.00002h-63.99999v-63.99999h63.99999z" data-paper-data="{&quot;index&quot;:null}" fill="none" stroke-width="1"/><g data-paper-data="{&quot;index&quot;:null}"><path d="M227.90002,204.40003v-6.80001l7.6,-7.6h-18l-7.6,-7.6v-4.7l7.6,-7.7h18l-7.6,-7.6v-6.80001l5.6,-5.6h6.9l30,30l-30,30h-6.80001zM239.20001,205.2l25.3,-25.2l-25.3,-25.2h-3.90001l-2.7,2.7v3.80001l11.2,11.2v1.5h-12.70001h-2.30001h-7.99999l-4.2,4.2v3.70001l4.2,4.2h7.99999h2.30001h12.8v1.5l-11.2,11.2v3.80001l2.7,2.7h3.80001z" fill="#000000" stroke-width="1"/><path d="M229.90002,203.80001v-5.5l8.2,-8.3h1.8v-1.99999h-21.8l-6.2,-6.2v-3.49999l6.2,-6.3h21.8v-1.99999h-1.8l-8.2,-8.2v-5.6l4.2,-4.2h5.6l28,28l-28,28h-5.6zM221.60003,176.00003l-3,3v1.99999l3,3h8.6l4,-4l-4,-4zM233.60001,176.00003l2.2,2.2v3.49999l-2.2,2.2h10.6l4,-4l-4,-4h-10.6zM238.40003,203.20003l23.2,-23.2l-23.2,-23.2h-2.19999l-1.5,1.5v2.09999l11.2,11.2v2.6l4,4v3.49999l-4,4v2.6l-11.2,11.2v2.09999l1.5,1.5h2.19999z" fill="#1500ff" stroke-width="1"/><path d="M230.23662,175.96595l4.01339,4.03405l-4.01339,4.03405h-8.67322l-3.01293,-3.02727v-2.01357l3.01293,-3.02727z" data-paper-data="{&quot;noHover&quot;:false,&quot;origItem&quot;:[&quot;Path&quot;,{&quot;applyMatrix&quot;:true,&quot;segments&quot;:[[249.75807,184.10122],[244.10122,184.10122],[244.10122,189.75807],[250.18234,195.83919],[254.42498,195.83919],[255.83919,194.42498],[255.83919,190.18234]],&quot;closed&quot;:true,&quot;fillColor&quot;:[0,0,0,1]}]}" fill="#ffffff" stroke-width="0.5"/><path d="M233.56011,175.86991h10.67982l4.01009,4.03012l-4.01009,4.03012h-10.67982l2.19667,-2.20501l-0.0006,-3.54915l-2.19643,-2.20559z" data-paper-data="{&quot;noHover&quot;:false,&quot;origItem&quot;:[&quot;Path&quot;,{&quot;applyMatrix&quot;:true,&quot;segments&quot;:[[247.42462,181.62635],[239.92929,174.13101],[234.27244,174.13101],[234.27244,179.78787],[241.76777,187.2832],[241.76777,184.17193],[244.24264,181.69706],[247.35391,181.69706]],&quot;closed&quot;:true,&quot;fillColor&quot;:[0,0,0,1]}]}" fill="#ffffff" stroke-width="0.5"/><path d="M238.40236,203.14995l-2.20475,-0.00001l-1.5036,-1.5003l0.01269,-2.19919l11.15746,-11.18528l-0.00571,-2.59293l3.99204,-3.97903l0.00003,-3.48622l-3.99196,-3.97906l0.00571,-2.593l-11.15759,-11.18538l-0.01266,-2.19919l1.50358,-1.5003l2.20474,-0.00001l23.24768,23.25l-23.24769,23.2499z" data-paper-data="{&quot;noHover&quot;:false,&quot;origItem&quot;:[&quot;Path&quot;,{&quot;applyMatrix&quot;:true,&quot;segments&quot;:[[224.7972,197.46554],[226.35284,199.02117],[228.47416,199.02117],[229.95908,197.53625],[229.95908,181.69706],[231.79756,179.85858],[231.79756,174.20172],[234.27244,171.72685],[239.92929,171.72685],[241.76777,169.88837],[257.60696,169.88837],[259.09188,168.40345],[259.09188,166.28213],[257.53625,164.72649],[224.72649,164.72649],[224.72649,197.53625]],&quot;closed&quot;:true,&quot;fillColor&quot;:[0,0,0,1]}]}" fill="#ffffff" stroke-width="0.5"/></g></g></g></svg>