<svg version="1.1" xmlns="http://www.w3.org/2000/svg" xmlns:xlink="http://www.w3.org/1999/xlink" width="63.99999" height="63.99999" viewBox="0,0,63.99999,63.99999"><g transform="translate(-208.00002,-148.00003)"><g data-paper-data="{&quot;isPaintingLayer&quot;:true}" fill-rule="nonzero" stroke="none" stroke-linecap="butt" stroke-linejoin="miter" stroke-miterlimit="10" stroke-dasharray="" stroke-dashoffset="0" style="mix-blend-mode: normal"><path d="M272.00001,148.00003v63.99999h-63.99999v-63.99999z" data-paper-data="{&quot;index&quot;:null}" fill="none" stroke-width="1"/><g data-paper-data="{&quot;index&quot;:null}"><path d="M264.40002,192.10003h-6.80001l-7.6,-7.6v18l-7.6,7.6h-4.7l-7.7,-7.6v-18l-7.6,7.6h-6.80001l-5.6,-5.6v-6.9l30,-30l30,30v6.80001zM265.19999,180.80003l-25.2,-25.3l-25.2,25.3v3.90001l2.7,2.7h3.80001l11.2,-11.2h1.5v12.70001v2.30001v7.99999l4.2,4.2h3.70001l4.2,-4.2v-7.99999v-2.30001v-12.8h1.5l11.2,11.2h3.80001l2.7,-2.7v-3.80001z" fill="#000000" stroke-width="1"/><path d="M263.8,190.10003h-5.5l-8.3,-8.2v-1.8h-1.99999v21.8l-6.2,6.2h-3.49999l-6.3,-6.2v-21.8h-1.99999v1.8l-8.2,8.2h-5.6l-4.2,-4.2v-5.6l28,-28l28,28v5.6zM236.00002,198.40002l3,3h1.99999l3,-3v-8.6l-4,-4l-4,4zM236.00002,186.40004l2.2,-2.2h3.49999l2.2,2.2v-10.6l-4,-4l-4,4v10.6zM263.20003,181.60002l-23.2,-23.2l-23.2,23.2v2.19999l1.5,1.5h2.09999l11.2,-11.2h2.6l4,-4h3.49999l4,4h2.6l11.2,11.2h2.09999l1.5,-1.5v-2.19999z" fill="#ffb100" stroke-width="1"/><path d="M235.96595,189.76342l4.03405,-4.01339l4.03405,4.01339v8.67322l-3.02727,3.01293h-2.01357l-3.02727,-3.01293z" data-paper-data="{&quot;noHover&quot;:false,&quot;origItem&quot;:[&quot;Path&quot;,{&quot;applyMatrix&quot;:true,&quot;segments&quot;:[[249.75807,184.10122],[244.10122,184.10122],[244.10122,189.75807],[250.18234,195.83919],[254.42498,195.83919],[255.83919,194.42498],[255.83919,190.18234]],&quot;closed&quot;:true,&quot;fillColor&quot;:[0,0,0,1]}]}" fill="#ffffff" stroke-width="0.5"/><path d="M235.86991,186.43994v-10.67982l4.03012,-4.01009l4.03012,4.01009v10.67982l-2.20501,-2.19667l-3.54915,0.0006l-2.20559,2.19643z" data-paper-data="{&quot;noHover&quot;:false,&quot;origItem&quot;:[&quot;Path&quot;,{&quot;applyMatrix&quot;:true,&quot;segments&quot;:[[247.42462,181.62635],[239.92929,174.13101],[234.27244,174.13101],[234.27244,179.78787],[241.76777,187.2832],[241.76777,184.17193],[244.24264,181.69706],[247.35391,181.69706]],&quot;closed&quot;:true,&quot;fillColor&quot;:[0,0,0,1]}]}" fill="#ffffff" stroke-width="0.5"/><path d="M263.14995,181.59768l-0.00001,2.20475l-1.5003,1.5036l-2.19919,-0.01269l-11.18528,-11.15746l-2.59293,0.00571l-3.97903,-3.99204l-3.48622,-0.00003l-3.97906,3.99196l-2.593,-0.00571l-11.18538,11.15759l-2.19919,0.01266l-1.5003,-1.50358l-0.00001,-2.20474l23.25,-23.24768l23.2499,23.24769z" data-paper-data="{&quot;noHover&quot;:false,&quot;origItem&quot;:[&quot;Path&quot;,{&quot;applyMatrix&quot;:true,&quot;segments&quot;:[[224.7972,197.46554],[226.35284,199.02117],[228.47416,199.02117],[229.95908,197.53625],[229.95908,181.69706],[231.79756,179.85858],[231.79756,174.20172],[234.27244,171.72685],[239.92929,171.72685],[241.76777,169.88837],[257.60696,169.88837],[259.09188,168.40345],[259.09188,166.28213],[257.53625,164.72649],[224.72649,164.72649],[224.72649,197.53625]],&quot;closed&quot;:true,&quot;fillColor&quot;:[0,0,0,1]}]}" fill="#ffffff" stroke-width="0.5"/></g></g></g></svg>